<svg xmlns="http://www.w3.org/2000/svg" role="img" aria-labelledby="chart-title chart-description" viewBox="0 0 920 560">
<title id="chart-title">Batched NDJSON import throughput</title><desc id="chart-description">End-to-end CLI throughput for NDJSON imports using bounded transactions; higher is better.</desc>
<rect width="920" height="560" fill="#0F172A"/>
<rect x="90" y="55" width="800" height="380" fill="#1E293B" stroke="#334155"/>
<text x="460.0" y="28" text-anchor="middle" font-family="'Outfit Variable', Outfit, sans-serif" font-size="20" font-weight="600" fill="#F8FAFC">Batched NDJSON import throughput</text>
<line x1="90" y1="435.0" x2="890" y2="435.0" stroke="#334155"/>
<text x="80" y="439.0" text-anchor="end" font-family="'Inter Variable', Inter, sans-serif" font-size="12" fill="#CBD5E1">0</text>
<line x1="90" y1="340.0" x2="890" y2="340.0" stroke="#334155"/>
<text x="80" y="344.0" text-anchor="end" font-family="'Inter Variable', Inter, sans-serif" font-size="12" fill="#CBD5E1">2,000</text>
<line x1="90" y1="245.0" x2="890" y2="245.0" stroke="#334155"/>
<text x="80" y="249.0" text-anchor="end" font-family="'Inter Variable', Inter, sans-serif" font-size="12" fill="#CBD5E1">4,000</text>
<line x1="90" y1="150.0" x2="890" y2="150.0" stroke="#334155"/>
<text x="80" y="154.0" text-anchor="end" font-family="'Inter Variable', Inter, sans-serif" font-size="12" fill="#CBD5E1">6,000</text>
<line x1="90" y1="55.0" x2="890" y2="55.0" stroke="#334155"/>
<text x="80" y="59.0" text-anchor="end" font-family="'Inter Variable', Inter, sans-serif" font-size="12" fill="#CBD5E1">8,000</text>
<polyline points="90.0,272.5 490.0,198.5 890.0,230.4" fill="none" stroke="#646CFF" stroke-width="3"/>
<circle cx="90.0" cy="272.5" r="5.0" fill="#646CFF"/>
<circle cx="490.0" cy="198.5" r="5.0" fill="#646CFF"/>
<circle cx="890.0" cy="230.4" r="5.0" fill="#646CFF"/>
<polyline points="90.0,151.5 490.0,144.9 890.0,188.7" fill="none" stroke="#22D3EE" stroke-width="3" stroke-dasharray="8 5"/>
<rect x="85.0" y="146.5" width="10.0" height="10.0" fill="#22D3EE"/>
<rect x="485.0" y="139.9" width="10.0" height="10.0" fill="#22D3EE"/>
<rect x="885.0" y="183.7" width="10.0" height="10.0" fill="#22D3EE"/>
<polyline points="90.0,274.9 490.0,192.8 890.0,206.2" fill="none" stroke="#FB923C" stroke-width="3" stroke-dasharray="2 4"/>
<path d="M 90.0 268.9 L 96.0 274.9 L 90.0 280.9 L 84.0 274.9 Z" fill="#FB923C"/>
<path d="M 490.0 186.8 L 496.0 192.8 L 490.0 198.8 L 484.0 192.8 Z" fill="#FB923C"/>
<path d="M 890.0 200.2 L 896.0 206.2 L 890.0 212.2 L 884.0 206.2 Z" fill="#FB923C"/>
<text x="90.0" y="459" text-anchor="middle" font-family="'Inter Variable', Inter, sans-serif" font-size="12" fill="#CBD5E1">1,000</text>
<text x="490.0" y="459" text-anchor="middle" font-family="'Inter Variable', Inter, sans-serif" font-size="12" fill="#CBD5E1">10,000</text>
<text x="890.0" y="459" text-anchor="middle" font-family="'Inter Variable', Inter, sans-serif" font-size="12" fill="#CBD5E1">100,000</text>
<line x1="90" y1="537" x2="114" y2="537" stroke="#646CFF" stroke-width="3"/>
<circle cx="102.0" cy="537.0" r="5.0" fill="#646CFF"/>
<text x="124" y="542" font-family="'Inter Variable', Inter, sans-serif" font-size="13" fill="#F8FAFC">Python</text>
<line x1="240" y1="537" x2="264" y2="537" stroke="#22D3EE" stroke-width="3" stroke-dasharray="8 5"/>
<rect x="247.0" y="532.0" width="10.0" height="10.0" fill="#22D3EE"/>
<text x="274" y="542" font-family="'Inter Variable', Inter, sans-serif" font-size="13" fill="#F8FAFC">Go</text>
<line x1="390" y1="537" x2="414" y2="537" stroke="#FB923C" stroke-width="3" stroke-dasharray="2 4"/>
<path d="M 402.0 531.0 L 408.0 537.0 L 402.0 543.0 L 396.0 537.0 Z" fill="#FB923C"/>
<text x="424" y="542" font-family="'Inter Variable', Inter, sans-serif" font-size="13" fill="#F8FAFC">TypeScript</text>
<text x="490.0" y="492" text-anchor="middle" font-family="'Inter Variable', Inter, sans-serif" font-size="13" fill="#CBD5E1">Entities imported (log scale)</text>
<text x="20" y="245.0" transform="rotate(-90 20 245.0)" text-anchor="middle" font-family="'Inter Variable', Inter, sans-serif" font-size="13" fill="#CBD5E1">Throughput (entities/s; higher is better)</text>
</svg>
